<svg width="3136" height="624" viewBox="0 0 3136 624" fill="none" xmlns="http://www.w3.org/2000/svg">
<g opacity="0.89">
<mask id="path-1-outside-1_1_1321" maskUnits="userSpaceOnUse" x="-3.41602" y="-1.77002" width="3142" height="628" fill="black">
<rect fill="white" x="-3.41602" y="-1.77002" width="3142" height="628"/>
<path d="M309.805 0.917424L400.505 610.23H238.298L230.395 500.712H173.566L164.157 610.23H0.0677702L80.6069 0.917424H309.805ZM225.878 392.699C217.85 323.701 209.821 238.52 201.792 137.157C185.734 253.575 175.698 338.755 171.684 392.699H225.878ZM427.603 0.917424H546.153C622.678 0.917424 674.364 4.43003 701.21 11.4553C728.307 18.4805 748.881 30.0219 762.932 46.0796C776.982 62.1372 785.764 80.0766 789.276 99.8978C792.789 119.468 794.545 158.107 794.545 215.814V429.205C794.545 483.901 791.911 520.533 786.642 539.1C781.624 557.415 772.717 571.842 759.921 582.38C747.125 592.667 731.318 599.943 712.501 604.208C693.683 608.223 665.331 610.23 627.445 610.23H427.603V0.917424ZM586.047 105.167V505.981C608.879 505.981 622.929 501.464 628.198 492.432C633.467 483.149 636.101 458.184 636.101 417.538V180.813C636.101 153.214 635.223 135.526 633.467 127.748C631.71 119.97 627.696 114.325 621.424 110.812C615.151 107.048 603.359 105.167 586.047 105.167ZM1035.41 308.02V413.022H835.567V308.02H1035.41ZM1400.09 0.917424V122.855H1306.01V610.23H1147.56V122.855H1053.85V0.917424H1400.09ZM1594.67 0.917424V610.23H1436.22V0.917424H1594.67ZM1977.42 0.917424V122.855H1883.33V610.23H1724.89V122.855H1631.17V0.917424H1977.42ZM2373.71 0.917424V408.129C2373.71 454.295 2372.21 486.787 2369.2 505.604C2366.19 524.171 2357.28 543.365 2342.48 563.186C2327.67 582.756 2308.1 597.685 2283.77 607.972C2259.68 618.008 2231.2 623.026 2198.34 623.026C2161.95 623.026 2129.84 617.004 2101.99 604.961C2074.14 592.918 2053.31 577.237 2039.51 557.917C2025.72 538.598 2017.56 518.275 2015.05 496.948C2012.54 475.371 2011.29 430.209 2011.29 361.462V0.917424H2169.73V457.808C2169.73 484.403 2171.11 501.464 2173.87 508.992C2176.88 516.268 2182.78 519.906 2191.56 519.906C2201.6 519.906 2207.99 515.891 2210.75 507.862C2213.77 499.583 2215.27 480.263 2215.27 449.904V0.917424H2373.71ZM2435.06 0.917424H2553.61C2630.14 0.917424 2681.82 4.43003 2708.67 11.4553C2735.76 18.4805 2756.34 30.0219 2770.39 46.0796C2784.44 62.1372 2793.22 80.0766 2796.73 99.8978C2800.25 119.468 2802 158.107 2802 215.814V429.205C2802 483.901 2799.37 520.533 2794.1 539.1C2789.08 557.415 2780.17 571.842 2767.38 582.38C2754.58 592.667 2738.78 599.943 2719.96 604.208C2701.14 608.223 2672.79 610.23 2634.9 610.23H2435.06V0.917424ZM2593.5 105.167V505.981C2616.34 505.981 2630.39 501.464 2635.65 492.432C2640.92 483.149 2643.56 458.184 2643.56 417.538V180.813C2643.56 153.214 2642.68 135.526 2640.92 127.748C2639.17 119.97 2635.15 114.325 2628.88 110.812C2622.61 107.048 2610.82 105.167 2593.5 105.167ZM2861.09 0.917424H3125.29V122.855H3019.53V238.395H3118.51V354.311H3019.53V488.292H3135.83V610.23H2861.09V0.917424Z"/>
</mask>
<path d="M309.805 0.917419L312.345 0.539291L312.019 -1.65077H309.805V0.917419ZM400.505 610.23V612.798H403.484L403.046 609.852L400.505 610.23ZM238.298 610.23L235.737 610.415L235.909 612.798H238.298V610.23ZM230.395 500.712L232.956 500.527L232.784 498.144H230.395V500.712ZM173.566 500.712V498.144H171.209L171.007 500.492L173.566 500.712ZM164.157 610.23V612.798H166.514L166.716 610.45L164.157 610.23ZM0.06777 610.23L-2.47828 609.893L-2.86223 612.798H0.06777V610.23ZM80.6069 0.917419V-1.65077H78.3559L78.0609 0.580887L80.6069 0.917419ZM225.878 392.699V395.267H228.763L228.429 392.402L225.878 392.699ZM201.792 137.157L204.352 136.954L199.248 136.806L201.792 137.157ZM171.684 392.699L169.123 392.508L168.917 395.267H171.684V392.699ZM307.265 1.29555L397.965 610.608L403.046 609.852L312.345 0.539291L307.265 1.29555ZM400.505 607.662H238.298V612.798H400.505V607.662ZM240.86 610.045L232.956 500.527L227.833 500.897L235.737 610.415L240.86 610.045ZM230.395 498.144H173.566V503.28H230.395V498.144ZM171.007 500.492L161.598 610.01L166.716 610.45L176.124 500.932L171.007 500.492ZM164.157 607.662H0.06777V612.798H164.157V607.662ZM2.61382 610.567L83.153 1.25397L78.0609 0.580887L-2.47828 609.893L2.61382 610.567ZM80.6069 3.48563H309.805V-1.65077H80.6069V3.48563ZM228.429 392.402C220.406 323.446 212.38 238.299 204.352 136.954L199.232 137.359C207.262 238.742 215.294 323.956 223.327 392.996L228.429 392.402ZM199.248 136.806C183.189 253.23 173.144 338.479 169.123 392.508L174.245 392.89C178.253 339.032 188.279 253.919 204.336 137.507L199.248 136.806ZM171.684 395.267H225.878V390.131H171.684V395.267ZM427.603 0.917419V-1.65077H425.034V0.917419H427.603ZM701.21 11.4553L700.56 13.9398L700.565 13.9413L701.21 11.4553ZM789.276 99.8978L786.747 100.346L786.748 100.352L789.276 99.8978ZM786.642 539.1L784.171 538.398L784.168 538.41L784.165 538.421L786.642 539.1ZM759.921 582.38L761.53 584.382L761.542 584.372L761.553 584.362L759.921 582.38ZM712.501 604.208L713.036 606.72L713.052 606.717L713.068 606.713L712.501 604.208ZM427.603 610.23H425.034V612.798H427.603V610.23ZM586.047 105.167V102.599H583.478V105.167H586.047ZM586.047 505.981H583.478V508.549H586.047V505.981ZM628.198 492.432L630.416 493.726L630.424 493.713L630.431 493.7L628.198 492.432ZM621.424 110.812L620.102 113.014L620.135 113.034L620.169 113.053L621.424 110.812ZM427.603 3.48563H546.153V-1.65077H427.603V3.48563ZM546.153 3.48563C622.715 3.48563 674.079 7.01036 700.56 13.9398L701.86 8.97072C674.648 1.84972 622.642 -1.65077 546.153 -1.65077V3.48563ZM700.565 13.9413C727.317 20.8769 747.38 32.206 760.999 47.7707L764.864 44.3884C750.383 27.8378 729.297 16.0841 701.854 8.96925L700.565 13.9413ZM760.999 47.7707C774.76 63.4981 783.321 81.0137 786.747 100.346L791.805 99.4496C788.206 79.1396 779.204 60.7763 764.864 44.3884L760.999 47.7707ZM786.748 100.352C790.214 119.661 791.977 158.074 791.977 215.814H797.113C797.113 158.14 795.363 119.275 791.804 99.4441L786.748 100.352ZM791.977 215.814V429.205H797.113V215.814H791.977ZM791.977 429.205C791.977 483.949 789.328 520.228 784.171 538.398L789.112 539.801C794.494 520.838 797.113 483.854 797.113 429.205H791.977ZM784.165 538.421C779.266 556.303 770.617 570.244 758.288 580.398L761.553 584.362C774.816 573.44 783.982 558.528 789.119 539.778L784.165 538.421ZM758.312 580.378C745.869 590.381 730.436 597.51 711.933 601.704L713.068 606.713C732.2 602.376 748.381 594.953 761.53 584.382L758.312 580.378ZM711.965 601.697C693.42 605.653 665.289 607.662 627.445 607.662V612.798C665.373 612.798 693.946 610.793 713.036 606.72L711.965 601.697ZM627.445 607.662H427.603V612.798H627.445V607.662ZM430.171 610.23V0.917419H425.034V610.23H430.171ZM583.478 105.167V505.981H588.615V105.167H583.478ZM586.047 508.549C597.6 508.549 607.116 507.41 614.494 505.039C621.875 502.666 627.352 498.978 630.416 493.726L625.979 491.138C623.774 494.918 619.592 498.005 612.922 500.149C606.25 502.293 597.325 503.413 586.047 503.413V508.549ZM630.431 493.7C633.356 488.547 635.362 479.499 636.679 467.016C638.01 454.406 638.669 437.904 638.669 417.538H633.533C633.533 437.819 632.875 454.121 631.571 466.477C630.254 478.958 628.309 487.033 625.964 491.164L630.431 493.7ZM638.669 417.538V180.813H633.533V417.538H638.669ZM638.669 180.813C638.669 153.294 637.804 135.295 635.972 127.182L630.962 128.313C632.642 135.756 633.533 153.135 633.533 180.813H638.669ZM635.972 127.182C634.075 118.78 629.66 112.481 622.678 108.571L620.169 113.053C625.732 116.168 629.346 121.159 630.962 128.313L635.972 127.182ZM622.745 108.61C619.205 106.486 614.321 105.006 608.28 104.042C602.205 103.073 594.784 102.599 586.047 102.599V107.735C594.622 107.735 601.753 108.202 607.47 109.114C613.221 110.032 617.37 111.375 620.102 113.014L622.745 108.61ZM1035.41 308.02H1037.98V305.452H1035.41V308.02ZM1035.41 413.022V415.59H1037.98V413.022H1035.41ZM835.567 413.022H832.999V415.59H835.567V413.022ZM835.567 308.02V305.452H832.999V308.02H835.567ZM1032.84 308.02V413.022H1037.98V308.02H1032.84ZM1035.41 410.454H835.567V415.59H1035.41V410.454ZM838.136 413.022V308.02H832.999V413.022H838.136ZM835.567 310.588H1035.41V305.452H835.567V310.588ZM1400.09 0.917419H1402.66V-1.65077H1400.09V0.917419ZM1400.09 122.855V125.423H1402.66V122.855H1400.09ZM1306.01 122.855V120.287H1303.44V122.855H1306.01ZM1306.01 610.23V612.798H1308.57V610.23H1306.01ZM1147.56 610.23H1144.99V612.798H1147.56V610.23ZM1147.56 122.855H1150.13V120.287H1147.56V122.855ZM1053.85 122.855H1051.28V125.423H1053.85V122.855ZM1053.85 0.917419V-1.65077H1051.28V0.917419H1053.85ZM1397.53 0.917419V122.855H1402.66V0.917419H1397.53ZM1400.09 120.287H1306.01V125.423H1400.09V120.287ZM1303.44 122.855V610.23H1308.57V122.855H1303.44ZM1306.01 607.662H1147.56V612.798H1306.01V607.662ZM1150.13 610.23V122.855H1144.99V610.23H1150.13ZM1147.56 120.287H1053.85V125.423H1147.56V120.287ZM1056.42 122.855V0.917419H1051.28V122.855H1056.42ZM1053.85 3.48563H1400.09V-1.65077H1053.85V3.48563ZM1594.67 0.917419H1597.24V-1.65077H1594.67V0.917419ZM1594.67 610.23V612.798H1597.24V610.23H1594.67ZM1436.22 610.23H1433.66V612.798H1436.22V610.23ZM1436.22 0.917419V-1.65077H1433.66V0.917419H1436.22ZM1592.1 0.917419V610.23H1597.24V0.917419H1592.1ZM1594.67 607.662H1436.22V612.798H1594.67V607.662ZM1438.79 610.23V0.917419H1433.66V610.23H1438.79ZM1436.22 3.48563H1594.67V-1.65077H1436.22V3.48563ZM1977.42 0.917419H1979.99V-1.65077H1977.42V0.917419ZM1977.42 122.855V125.423H1979.99V122.855H1977.42ZM1883.33 122.855V120.287H1880.76V122.855H1883.33ZM1883.33 610.23V612.798H1885.9V610.23H1883.33ZM1724.89 610.23H1722.32V612.798H1724.89V610.23ZM1724.89 122.855H1727.45V120.287H1724.89V122.855ZM1631.17 122.855H1628.61V125.423H1631.17V122.855ZM1631.17 0.917419V-1.65077H1628.61V0.917419H1631.17ZM1974.85 0.917419V122.855H1979.99V0.917419H1974.85ZM1977.42 120.287H1883.33V125.423H1977.42V120.287ZM1880.76 122.855V610.23H1885.9V122.855H1880.76ZM1883.33 607.662H1724.89V612.798H1883.33V607.662ZM1727.45 610.23V122.855H1722.32V610.23H1727.45ZM1724.89 120.287H1631.17V125.423H1724.89V120.287ZM1633.74 122.855V0.917419H1628.61V122.855H1633.74ZM1631.17 3.48563H1977.42V-1.65077H1631.17V3.48563ZM2373.71 0.917419H2376.28V-1.65077H2373.71V0.917419ZM2369.2 505.604L2371.73 506.015L2371.73 506.01L2369.2 505.604ZM2342.48 563.186L2344.53 564.735L2344.53 564.729L2344.54 564.723L2342.48 563.186ZM2283.77 607.972L2284.75 610.343L2284.77 610.337L2283.77 607.972ZM2015.05 496.948L2012.5 497.245L2012.5 497.248L2015.05 496.948ZM2011.29 0.917419V-1.65077H2008.72V0.917419H2011.29ZM2169.73 0.917419H2172.3V-1.65077H2169.73V0.917419ZM2173.87 508.992L2171.46 509.876L2171.48 509.925L2171.5 509.973L2173.87 508.992ZM2210.75 507.862L2208.34 506.985L2208.33 507.006L2208.33 507.028L2210.75 507.862ZM2215.27 0.917419V-1.65077H2212.7V0.917419H2215.27ZM2371.15 0.917419V408.129H2376.28V0.917419H2371.15ZM2371.15 408.129C2371.15 454.296 2369.64 486.604 2366.66 505.199L2371.73 506.01C2374.78 486.97 2376.28 454.294 2376.28 408.129H2371.15ZM2366.66 505.193C2363.74 523.244 2355.05 542.059 2340.42 561.649L2344.54 564.723C2359.51 544.671 2368.64 525.098 2371.73 506.015L2366.66 505.193ZM2340.43 561.637C2325.92 580.82 2306.72 595.481 2282.77 605.606L2284.77 610.337C2309.49 599.889 2329.43 584.692 2344.53 564.735L2340.43 561.637ZM2282.78 605.601C2259.08 615.478 2230.95 620.458 2198.33 620.458V625.594C2231.46 625.594 2260.29 620.538 2284.75 610.343L2282.78 605.601ZM2198.33 620.458C2162.24 620.458 2130.48 614.483 2103.01 602.604L2100.97 607.318C2129.2 619.526 2161.67 625.594 2198.33 625.594V620.458ZM2103.01 602.604C2075.47 590.695 2055.07 575.272 2041.6 556.424L2037.43 559.41C2051.56 579.202 2072.81 595.14 2100.97 607.318L2103.01 602.604ZM2041.6 556.424C2028.03 537.419 2020.06 517.501 2017.6 496.648L2012.5 497.248C2015.07 519.049 2023.4 539.776 2037.43 559.41L2041.6 556.424ZM2017.6 496.652C2015.11 475.249 2013.86 430.24 2013.86 361.462H2008.72C2008.72 430.178 2009.97 475.493 2012.5 497.245L2017.6 496.652ZM2013.86 361.462V0.917419H2008.72V361.462H2013.86ZM2011.29 3.48563H2169.73V-1.65077H2011.29V3.48563ZM2167.16 0.917419V457.808H2172.3V0.917419H2167.16ZM2167.16 457.808C2167.16 471.141 2167.51 482.131 2168.21 490.757C2168.9 499.319 2169.95 505.763 2171.46 509.876L2176.28 508.107C2175.03 504.693 2174.01 498.843 2173.33 490.343C2172.64 481.908 2172.3 471.07 2172.3 457.808H2167.16ZM2171.5 509.973C2173.18 514.04 2175.73 517.222 2179.2 519.363C2182.65 521.491 2186.82 522.474 2191.56 522.474V517.338C2187.52 517.338 2184.35 516.502 2181.9 514.992C2179.47 513.494 2177.57 511.22 2176.25 508.01L2171.5 509.973ZM2191.56 522.474C2196.91 522.474 2201.53 521.406 2205.25 519.07C2209.01 516.712 2211.64 513.194 2213.18 508.697L2208.33 507.028C2207.11 510.56 2205.16 513.063 2202.52 514.719C2199.85 516.399 2196.25 517.338 2191.56 517.338V522.474ZM2213.17 508.74C2214.8 504.247 2215.95 497.045 2216.7 487.363C2217.46 477.61 2217.84 465.118 2217.84 449.904H2212.7C2212.7 465.05 2212.33 477.396 2211.58 486.964C2210.83 496.6 2209.72 503.198 2208.34 506.985L2213.17 508.74ZM2217.84 449.904V0.917419H2212.7V449.904H2217.84ZM2215.27 3.48563H2373.71V-1.65077H2215.27V3.48563ZM2435.06 0.917419V-1.65077H2432.49V0.917419H2435.06ZM2708.67 11.4553L2708.02 13.9398L2708.02 13.9413L2708.67 11.4553ZM2796.73 99.8978L2794.2 100.346L2794.21 100.352L2796.73 99.8978ZM2794.1 539.1L2791.63 538.398L2791.62 538.41L2791.62 538.421L2794.1 539.1ZM2767.38 582.38L2768.99 584.382L2769 584.372L2769.01 584.362L2767.38 582.38ZM2719.96 604.208L2720.49 606.72L2720.51 606.717L2720.53 606.713L2719.96 604.208ZM2435.06 610.23H2432.49V612.798H2435.06V610.23ZM2593.5 105.167V102.599H2590.94V105.167H2593.5ZM2593.5 505.981H2590.94V508.549H2593.5V505.981ZM2635.66 492.432L2637.87 493.726L2637.88 493.713L2637.89 493.7L2635.66 492.432ZM2628.88 110.812L2627.56 113.014L2627.59 113.034L2627.63 113.053L2628.88 110.812ZM2435.06 3.48563H2553.61V-1.65077H2435.06V3.48563ZM2553.61 3.48563C2630.17 3.48563 2681.54 7.01036 2708.02 13.9398L2709.32 8.97072C2682.1 1.84972 2630.1 -1.65077 2553.61 -1.65077V3.48563ZM2708.02 13.9413C2734.77 20.8769 2754.84 32.206 2768.46 47.7707L2772.32 44.3884C2757.84 27.8378 2736.75 16.0841 2709.31 8.96925L2708.02 13.9413ZM2768.46 47.7707C2782.22 63.4981 2790.78 81.0137 2794.2 100.346L2799.26 99.4496C2795.66 79.1396 2786.66 60.7763 2772.32 44.3884L2768.46 47.7707ZM2794.21 100.352C2797.67 119.661 2799.43 158.074 2799.43 215.814H2804.57C2804.57 158.14 2802.82 119.275 2799.26 99.4441L2794.21 100.352ZM2799.43 215.814V429.205H2804.57V215.814H2799.43ZM2799.43 429.205C2799.43 483.949 2796.78 520.228 2791.63 538.398L2796.57 539.801C2801.95 520.838 2804.57 483.854 2804.57 429.205H2799.43ZM2791.62 538.421C2786.72 556.303 2778.07 570.244 2765.75 580.398L2769.01 584.362C2782.27 573.44 2791.44 558.528 2796.58 539.778L2791.62 538.421ZM2765.77 580.378C2753.33 590.381 2737.89 597.51 2719.39 601.704L2720.53 606.713C2739.66 602.376 2755.84 594.953 2768.99 584.382L2765.77 580.378ZM2719.42 601.697C2700.88 605.653 2672.75 607.662 2634.9 607.662V612.798C2672.83 612.798 2701.4 610.793 2720.49 606.72L2719.42 601.697ZM2634.9 607.662H2435.06V612.798H2634.9V607.662ZM2437.63 610.23V0.917419H2432.49V610.23H2437.63ZM2590.94 105.167V505.981H2596.07V105.167H2590.94ZM2593.5 508.549C2605.06 508.549 2614.57 507.41 2621.95 505.039C2629.33 502.666 2634.81 498.978 2637.87 493.726L2633.44 491.138C2631.23 494.918 2627.05 498.005 2620.38 500.149C2613.71 502.293 2604.78 503.413 2593.5 503.413V508.549ZM2637.89 493.7C2640.81 488.547 2642.82 479.499 2644.14 467.016C2645.47 454.406 2646.13 437.904 2646.13 417.538H2640.99C2640.99 437.819 2640.33 454.121 2639.03 466.477C2637.71 478.958 2635.77 487.033 2633.42 491.164L2637.89 493.7ZM2646.13 417.538V180.813H2640.99V417.538H2646.13ZM2646.13 180.813C2646.13 153.294 2645.26 135.295 2643.43 127.182L2638.42 128.313C2640.1 135.756 2640.99 153.135 2640.99 180.813H2646.13ZM2643.43 127.182C2641.53 118.78 2637.12 112.481 2630.14 108.571L2627.63 113.053C2633.19 116.168 2636.8 121.159 2638.42 128.313L2643.43 127.182ZM2630.2 108.61C2626.66 106.486 2621.78 105.006 2615.74 104.042C2609.66 103.073 2602.24 102.599 2593.5 102.599V107.735C2602.08 107.735 2609.21 108.202 2614.93 109.114C2620.68 110.032 2624.83 111.375 2627.56 113.014L2630.2 108.61ZM2861.09 0.917419V-1.65077H2858.52V0.917419H2861.09ZM3125.29 0.917419H3127.86V-1.65077H3125.29V0.917419ZM3125.29 122.855V125.423H3127.86V122.855H3125.29ZM3019.53 122.855V120.287H3016.97V122.855H3019.53ZM3019.53 238.395H3016.97V240.963H3019.53V238.395ZM3118.51 238.395H3121.08V235.827H3118.51V238.395ZM3118.51 354.311V356.879H3121.08V354.311H3118.51ZM3019.53 354.311V351.743H3016.97V354.311H3019.53ZM3019.53 488.292H3016.97V490.86H3019.53V488.292ZM3135.83 488.292H3138.39V485.724H3135.83V488.292ZM3135.83 610.23V612.798H3138.39V610.23H3135.83ZM2861.09 610.23H2858.52V612.798H2861.09V610.23ZM2861.09 3.48563H3125.29V-1.65077H2861.09V3.48563ZM3122.72 0.917419V122.855H3127.86V0.917419H3122.72ZM3125.29 120.287H3019.53V125.423H3125.29V120.287ZM3016.97 122.855V238.395H3022.1V122.855H3016.97ZM3019.53 240.963H3118.51V235.827H3019.53V240.963ZM3115.95 238.395V354.311H3121.08V238.395H3115.95ZM3118.51 351.743H3019.53V356.879H3118.51V351.743ZM3016.97 354.311V488.292H3022.1V354.311H3016.97ZM3019.53 490.86H3135.83V485.724H3019.53V490.86ZM3133.26 488.292V610.23H3138.39V488.292H3133.26ZM3135.83 607.662H2861.09V612.798H3135.83V607.662ZM2863.66 610.23V0.917419H2858.52V610.23H2863.66Z" fill="white" mask="url(#path-1-outside-1_1_1321)"/>
</g>
</svg>
