<svg width="339" height="68" viewBox="0 0 339 68" fill="none" xmlns="http://www.w3.org/2000/svg">
<path d="M33.6506 0.236557L43.4336 65.957H25.9379L25.0854 54.1444H18.9559L17.941 65.957H0.242373L8.92933 0.236557H33.6506ZM24.5983 42.4941C23.7323 35.052 22.8663 25.8644 22.0004 14.9313C20.2684 27.4882 19.1859 36.6758 18.7529 42.4941H24.5983ZM46.3563 0.236557H59.1432C67.3971 0.236557 72.9719 0.615427 75.8676 1.37317C78.7903 2.13091 81.0094 3.37577 82.5249 5.10775C84.0404 6.83973 84.9875 8.77467 85.3664 10.9126C85.7453 13.0234 85.9347 17.191 85.9347 23.4153V46.4317C85.9347 52.3312 85.6506 56.2823 85.0823 58.2849C84.541 60.2604 83.5803 61.8165 82.2001 62.9531C80.82 64.0627 79.1151 64.8475 77.0854 65.3075C75.0557 65.7405 71.9977 65.957 67.9113 65.957H46.3563V0.236557ZM63.4461 11.4809V54.7127C65.9087 54.7127 67.4242 54.2256 67.9925 53.2513C68.5608 52.25 68.845 49.5574 68.845 45.1733V19.6401C68.845 16.6633 68.7502 14.7554 68.5608 13.9165C68.3714 13.0776 67.9384 12.4687 67.2618 12.0898C66.5853 11.6839 65.3134 11.4809 63.4461 11.4809ZM111.914 33.3607V44.6862H90.3594V33.3607H111.914ZM151.249 0.236557V13.3888H141.101V65.957H124.011V13.3888H113.903V0.236557H151.249ZM172.236 0.236557V65.957H155.146V0.236557H172.236ZM213.519 0.236557V13.3888H203.371V65.957H186.281V13.3888H176.174V0.236557H213.519ZM256.264 0.236557V44.1585C256.264 49.1379 256.102 52.6424 255.777 54.6721C255.452 56.6747 254.491 58.745 252.895 60.8829C251.298 62.9937 249.187 64.6039 246.562 65.7135C243.964 66.796 240.893 67.3372 237.348 67.3372C233.424 67.3372 229.96 66.6877 226.956 65.3887C223.952 64.0897 221.706 62.3984 220.217 60.3146C218.729 58.2308 217.849 56.0387 217.579 53.7385C217.308 51.4111 217.173 46.5399 217.173 39.1249V0.236557H234.262V49.5168C234.262 52.3854 234.411 54.2256 234.709 55.0374C235.034 55.8222 235.67 56.2147 236.617 56.2147C237.699 56.2147 238.389 55.7817 238.687 54.9157C239.012 54.0226 239.174 51.9388 239.174 48.6643V0.236557H256.264ZM262.881 0.236557H275.668C283.922 0.236557 289.496 0.615427 292.392 1.37317C295.315 2.13091 297.534 3.37577 299.049 5.10775C300.565 6.83973 301.512 8.77467 301.891 10.9126C302.27 13.0234 302.459 17.191 302.459 23.4153V46.4317C302.459 52.3312 302.175 56.2823 301.607 58.2849C301.065 60.2604 300.105 61.8165 298.725 62.9531C297.344 64.0627 295.639 64.8475 293.61 65.3075C291.58 65.7405 288.522 65.957 284.436 65.957H262.881V0.236557ZM279.97 11.4809V54.7127C282.433 54.7127 283.949 54.2256 284.517 53.2513C285.085 52.25 285.369 49.5574 285.369 45.1733V19.6401C285.369 16.6633 285.275 14.7554 285.085 13.9165C284.896 13.0776 284.463 12.4687 283.786 12.0898C283.11 11.6839 281.838 11.4809 279.97 11.4809ZM308.832 0.236557H337.329V13.3888H325.922V25.8509H336.598V38.3536H325.922V52.8048H338.465V65.957H308.832V0.236557Z" fill="#FFD524"/>
</svg>
